{
  "accessors": [
    {
      "bufferView": 2,
      "componentType": 5126,
      "count": 6656,
      "max": [
        8.612256050109863,
        8.469123840332031,
        11.868375778198242
      ],
      "min": [
        -9.26780891418457,
        -8.469123840332031,
        -0.7242412567138672
      ],
      "type": "VEC3"
    },
    {
      "bufferView": 2,
      "byteOffset": 79872,
      "componentType": 5126,
      "count": 6656,
      "max": [
        0.9995906949043274,
        1.0,
        1.0
      ],
      "min": [
        -0.999957799911499,
        -1.0,
        -1.0
      ],
      "type": "VEC3"
    },
    {
      "bufferView": 1,
      "componentType": 5126,
      "count": 6656,
      "max": [
        0.47713690996170044,
        0.868370532989502
      ],
      "min": [
        0.00635920325294137,
        0.5028716325759888
      ],
      "type": "VEC2"
    },
    {
      "bufferView": 0,
      "componentType": 5125,
      "count": 14787,
      "type": "SCALAR"
    }
  ],
  "asset": {
    "extras": {
      "author": "Anna Obradow (https://sketchfab.com/AnnaObradow)",
      "license": "CC-BY-4.0 (http://creativecommons.org/licenses/by/4.0/)",
      "source": "https://sketchfab.com/3d-models/low-poly-cup-with-lemon-tea-06e0fd63f25d41c2967aba9a09cfe1fb",
      "title": "Low Poly Cup with Lemon Tea"
    },
    "generator": "Sketchfab-12.68.0",
    "version": "2.0"
  },
  "bufferViews": [
    {
      "buffer": 0,
      "byteLength": 59148,
      "name": "floatBufferViews",
      "target": 34963
    },
    {
      "buffer": 0,
      "byteLength": 53248,
      "byteOffset": 59148,
      "byteStride": 8,
      "name": "floatBufferViews",
      "target": 34962
    },
    {
      "buffer": 0,
      "byteLength": 159744,
      "byteOffset": 112396,
      "byteStride": 12,
      "name": "floatBufferViews",
      "target": 34962
    }
  ],
  "buffers": [
    {
      "byteLength": 272140,
      "uri": "scene.bin"
    }
  ],
  "images": [
    {
      "uri": "textures/MadeiraHouse_baseColor.png"
    }
  ],
  "materials": [
    {
      "doubleSided": true,
      "name": "MadeiraHouse",
      "pbrMetallicRoughness": {
        "baseColorTexture": {
          "index": 0
        },
        "metallicFactor": 0.0,
        "roughnessFactor": 0.6
      }
    }
  ],
  "meshes": [
    {
      "name": "CupWithTea_MadeiraHouse_0",
      "primitives": [
        {
          "attributes": {
            "NORMAL": 1,
            "POSITION": 0,
            "TEXCOORD_0": 2
          },
          "indices": 3,
          "material": 0,
          "mode": 4
        }
      ]
    }
  ],
  "nodes": [
    {
      "children": [
        1
      ],
      "matrix": [
        0.27074965834617615,
        0.0,
        0.0,
        0.0,
        0.0,
        6.011850092106389e-17,
        -0.27074965834617615,
        0.0,
        0.0,
        0.27074965834617615,
        6.011850092106389e-17,
        0.0,
        0.0,
        0.0,
        0.0,
        1.0
      ],
      "name": "Sketchfab_model"
    },
    {
      "children": [
        2
      ],
      "matrix": [
        1.0,
        0.0,
        0.0,
        0.0,
        0.0,
        0.0,
        1.0,
        0.0,
        0.0,
        -1.0,
        0.0,
        0.0,
        0.0,
        0.0,
        0.0,
        1.0
      ],
      "name": "0c6bb17ab52a44b3bf4c7199bb6a3076.fbx"
    },
    {
      "children": [
        3
      ],
      "name": "RootNode"
    },
    {
      "children": [
        4
      ],
      "matrix": [
        0.9489380645232612,
        0.0,
        -0.3154624378572621,
        0.0,
        -0.3154624378572621,
        0.0,
        -0.9489380645232612,
        0.0,
        0.0,
        1.0,
        0.0,
        0.0,
        0.0,
        0.0,
        0.0,
        1.0
      ],
      "name": "CupWithTea"
    },
    {
      "mesh": 0,
      "name": "CupWithTea_MadeiraHouse_0"
    }
  ],
  "samplers": [
    {
      "magFilter": 9729,
      "minFilter": 9987,
      "wrapS": 10497,
      "wrapT": 10497
    }
  ],
  "scene": 0,
  "scenes": [
    {
      "name": "Sketchfab_Scene",
      "nodes": [
        0
      ]
    }
  ],
  "textures": [
    {
      "sampler": 0,
      "source": 0
    }
  ]
}
