<svg xmlns="http://www.w3.org/2000/svg" version="1.1" xmlns:xlink="http://www.w3.org/1999/xlink" xmlns:svgjs="http://svgjs.dev/svgjs" width="2000" height="1500" viewBox="0 0 2000 1500"><rect width="2000" height="1500" fill="#242125"></rect><g transform="matrix(0.75,0,0,0.75,249.090909090909,282.7536437246963)"><svg viewBox="0 0 396 247" data-background-color="#242125" preserveAspectRatio="xMidYMid meet" height="1247" width="2000" xmlns="http://www.w3.org/2000/svg" xmlns:xlink="http://www.w3.org/1999/xlink"><g id="tight-bounds" transform="matrix(1,0,0,1,0.2400000000000091,-0.09999999999999432)"><svg viewBox="0 0 395.52 247.2" height="247.2" width="395.52"><g><svg></svg></g><g><svg viewBox="0 0 395.52 247.2" height="247.2" width="395.52"><g transform="matrix(1,0,0,1,75.54432,94.93457863370202)"><svg viewBox="0 0 244.43135999999998 57.33084273259596" height="57.33084273259596" width="244.43135999999998"><g><svg viewBox="0 0 244.43135999999998 57.33084273259596" height="57.33084273259596" width="244.43135999999998"><g><svg viewBox="0 0 244.43135999999998 57.33084273259596" height="57.33084273259596" width="244.43135999999998"><g><svg viewBox="0 0 244.43135999999998 57.33084273259596" height="57.33084273259596" width="244.43135999999998"><g id="textblocktransform"><svg viewBox="0 0 244.43135999999998 57.33084273259596" height="57.33084273259596" width="244.43135999999998" id="textblock"><g><svg viewBox="0 0 244.43135999999998 57.33084273259596" height="57.33084273259596" width="244.43135999999998"><g transform="matrix(1,0,0,1,0,0)"><svg width="244.43135999999998" viewBox="0.9 -35.55 153.69 36.05" height="57.33084273259596" data-palette-color="#6b7280"><path d="M5.85 0L5.85-1.5 24.25-1.5 13.65-30.65 2.5 0 0.9 0 13.65-35.05 26.4 0 5.85 0ZM44.25-14.55L44.25-14.55 51.05 0 49.4 0 42.4-15Q42.5-15.05 43.27-15.43 44.05-15.8 44.35-15.98 44.65-16.15 45.35-16.6 46.05-17.05 46.4-17.48 46.75-17.9 47.17-18.48 47.6-19.05 47.8-19.78 48-20.5 48-21.35L48-21.35Q48-24.5 45-26 42-27.5 37.55-27.5L37.55-27.5 33.55-27.5 33.55 0 32.05 0 32.05-29 37.55-29Q43.45-29 46.47-26.95 49.5-24.9 49.5-21.35L49.5-21.35Q49.5-19.05 47.95-17.28 46.4-15.5 44.25-14.55ZM59.3-3.05Q56.59-6.6 56.59-14.5 56.59-22.4 59.3-25.95 61.99-29.5 68.25-29.5 74.5-29.5 77.25-26.05L77.25-26.05 76.14-25.05Q73.94-28 68.25-28L68.25-28Q65.75-28 64.05-27.48 62.34-26.95 60.92-25.53 59.49-24.1 58.8-21.38 58.09-18.65 58.09-14.5 58.09-10.35 58.8-7.63 59.49-4.9 60.92-3.48 62.34-2.05 64.05-1.53 65.75-1 68.25-1L68.25-1Q73.94-1 76.14-3.95L76.14-3.95 77.25-2.95Q74.5 0.5 68.25 0.5 61.99 0.5 59.3-3.05ZM102.69-29L102.69 0 101.19 0 101.19-14.5 86.19-14.5 86.19 0 84.69 0 84.69-29 86.19-29 86.19-16 101.19-16 101.19-29 102.69-29ZM111.64-11.9L111.64-11.9Q111.64-6.85 114.34-3.9 117.04-0.95 121.49-0.95L121.49-0.95Q124.79-0.95 127.22-2.7 129.64-4.45 129.64-8.65L129.64-8.65Q129.64-10.8 128.74-12.48 127.84-14.15 126.52-15.03 125.19-15.9 123.94-16.32 122.69-16.75 121.74-16.75L121.74-16.75Q120.29-16.75 118.81-16.3 117.34-15.85 116.61-15.45 115.89-15.05 115.69-14.85L115.69-14.85 114.79-16.1Q115.14-16.35 115.72-16.7 116.29-17.05 118.09-17.65 119.89-18.25 121.69-18.25L121.69-18.25Q124.99-18.25 128.06-15.73 131.14-13.2 131.14-8.6L131.14-8.6Q131.14-3.9 128.37-1.7 125.59 0.5 121.44 0.5L121.44 0.5Q116.39 0.5 113.27-2.9 110.14-6.3 110.14-11.95L110.14-11.95Q110.14-15.15 111.31-18.82 112.49-22.5 114.64-26.03 116.79-29.55 120.44-32.2 124.09-34.85 128.54-35.55L128.54-35.55 128.94-34.1Q125.59-33.6 122.69-31.88 119.79-30.15 117.81-27.78 115.84-25.4 114.41-22.58 112.99-19.75 112.31-17.03 111.64-14.3 111.64-11.9ZM150.59-10.2L150.59 0 149.09 0 149.09-10.2 135.39-10.2 135.39-11.7 148.84-35 150.59-35 150.59-11.7 154.59-11.7 154.59-10.2 150.59-10.2ZM137.14-11.7L149.09-11.7 149.09-32.45 137.14-11.7Z" opacity="1" transform="matrix(1,0,0,1,0,0)" fill="#6b7280" class="wordmark-text-0" data-fill-palette-color="primary" id="text-0"></path></svg></g></svg></g></svg></g></svg></g></svg></g></svg></g></svg></g><g><path d="M0 123.6c0-68.262 55.338-123.6 123.6-123.6 55.948 0 103.214 37.173 118.446 88.167l-2.701 0c-15.149-49.547-61.239-85.582-115.745-85.582-66.835 0-121.015 54.18-121.015 121.015 0 66.835 54.18 121.015 121.015 121.015 54.506 0 100.596-36.036 115.745-85.582h2.701c-15.233 50.995-62.498 88.167-118.446 88.167-68.262 0-123.6-55.338-123.6-123.6z" fill="#6b7280" stroke="transparent" data-fill-palette-color="tertiary"></path></g></svg></g><defs></defs></svg><rect width="395.52" height="247.2" fill="none" stroke="none" visibility="hidden"></rect></g></svg></g></svg>